<?xml version="1.0" encoding="UTF-8" standalone="no"?>
<!DOCTYPE svg PUBLIC "-//W3C//DTD SVG 1.1//EN"
"http://www.w3.org/Graphics/SVG/1.1/DTD/svg11.dtd">
<svg viewBox="0 0 909 1286" version="1.1" xmlns="http://www.w3.org/2000/svg" xmlns:xlink="http://www.w3.org/1999/xlink">
<defs>
<clipPath id="c0"><path d="M39.4,706V19.6H865.3V706Z"/></clipPath>
<clipPath id="c1"><path d="M39.4,73.7V19.6H320.3V73.7Z"/></clipPath>
<clipPath id="c2"><path d="M454.3,132.6V30.1h117V132.6Z"/></clipPath>
<style type="text/css"><![CDATA[
.g0{
fill: #FFFFFF;
stroke: #FFFFFF;
stroke-width: 1.527;
stroke-linecap: butt;
stroke-linejoin: miter;
}
.g1{
fill: #EBB3B3;
stroke: #EBB3B3;
stroke-width: 1.527;
stroke-linecap: butt;
stroke-linejoin: miter;
}
.g2{
fill: #FFFFB0;
stroke: #FFFFB0;
stroke-width: 1.527;
stroke-linecap: butt;
stroke-linejoin: miter;
}
.g3{
fill: #CCCCCC;
stroke: #CCCCCC;
stroke-width: 1.527;
stroke-linecap: butt;
stroke-linejoin: miter;
}
.g4{
fill: #F5F5F5;
stroke: #F5F5F5;
stroke-width: 1.527;
stroke-linecap: butt;
stroke-linejoin: miter;
}
.g5{
fill: none;
stroke: #000000;
stroke-width: 1.466;
stroke-linecap: butt;
stroke-linejoin: miter;
}
.g6{
fill: none;
stroke: #000000;
stroke-width: 0.916;
stroke-linecap: butt;
stroke-linejoin: miter;
}
.g7{
fill: none;
stroke: #000000;
stroke-width: 1.65;
stroke-linecap: butt;
stroke-linejoin: miter;
}
.g8{
fill: none;
stroke: #000000;
stroke-width: 1.283;
stroke-linecap: butt;
stroke-linejoin: miter;
}
.g9{
fill: none;
stroke: #000000;
stroke-width: 1.038;
stroke-linecap: butt;
stroke-linejoin: miter;
stroke-dasharray: 2;
}
.ga{
fill: none;
stroke: #000000;
stroke-width: 0.916;
stroke-linecap: butt;
stroke-linejoin: miter;
stroke-dasharray: 2;
}
.gb{
fill: none;
stroke: #000000;
stroke-width: 1.038;
stroke-linecap: butt;
stroke-linejoin: miter;
}
]]></style>
</defs>
<path d="M39.4,703.6h823V20.2H39.4V703.6Z" class="g0"/>
<path clip-path="url(#c0)" d="M39.2,46.2H78.6V20H39.2V46.2Z" class="g0"/>
<path d="M78.5,46.2h47.8V20H78.5V46.2Z" class="g0"/>
<path d="M126.1,46.2H174V20H126.1V46.2Z" class="g0"/>
<path d="M173.8,46.2h47.9V20H173.8V46.2Z" class="g0"/>
<path d="M221.5,46.2h47.8V20H221.5V46.2Z" class="g0"/>
<path d="M269.1,46.2h51.4V20H269.1V46.2Z" class="g0"/>
<path d="M320.3,46.2h47.8V20H320.3V46.2Z" class="g0"/>
<path d="M367.9,46.2h47.9V20H367.9V46.2Z" class="g0"/>
<path d="M415.6,46.2h47.9V20H415.6V46.2Z" class="g0"/>
<path d="M463.3,46.2h47.8V20H463.3V46.2Z" class="g0"/>
<path d="M511,46.2h47.8V20H511V46.2Z" class="g0"/>
<path d="M558.6,46.2h47.9V20H558.6V46.2Z" class="g0"/>
<path d="M606.3,46.2h47.8V20H606.3V46.2Z" class="g0"/>
<path d="M654,46.2h47.8V20H654V46.2Z" class="g0"/>
<path d="M701.6,46.2h47.9V20H701.6V46.2Z" class="g0"/>
<path d="M749.3,46.2h47.8V20H749.3V46.2Z" class="g0"/>
<path d="M797,46.2h65.8V20H797V46.2Z" class="g0"/>
<g clip-path="url(#c0)">
<path d="M862.6,46.2h65.8V20H862.6V46.2Z" class="g0"/>
<path d="M39.2,59.8H78.6V46H39.2V59.8Z" class="g0"/>
</g>
<path d="M78.5,59.8h47.8V46H78.5V59.8Z" class="g0"/>
<path d="M126.1,59.8H174V46H126.1V59.8Z" class="g0"/>
<path d="M173.8,59.8h47.9V46H173.8V59.8Z" class="g0"/>
<path d="M221.5,59.8h47.8V46H221.5V59.8Z" class="g0"/>
<path d="M269.1,59.8h51.4V46H269.1V59.8Z" class="g0"/>
<path d="M320.3,59.8h47.8V46H320.3V59.8Z" class="g0"/>
<path d="M367.9,59.8h47.9V46H367.9V59.8Z" class="g0"/>
<path d="M415.6,59.8h47.9V46H415.6V59.8Z" class="g0"/>
<path d="M463.3,59.8h47.8V46H463.3V59.8Z" class="g0"/>
<path d="M511,59.8h47.8V46H511V59.8Z" class="g0"/>
<path d="M558.6,59.8h47.9V46H558.6V59.8Z" class="g0"/>
<path d="M606.3,59.8h47.8V46H606.3V59.8Z" class="g0"/>
<path d="M654,59.8h47.8V46H654V59.8Z" class="g0"/>
<path d="M701.6,59.8h47.9V46H701.6V59.8Z" class="g0"/>
<path d="M749.3,59.8h47.8V46H749.3V59.8Z" class="g0"/>
<path d="M797,59.8h65.8V46H797V59.8Z" class="g0"/>
<g clip-path="url(#c0)">
<path d="M862.6,59.8h65.8V46H862.6V59.8Z" class="g0"/>
<path d="M39.2,74.5H78.6V59.6H39.2V74.5Z" class="g0"/>
</g>
<path d="M78.5,74.5h47.8V59.6H78.5V74.5Z" class="g0"/>
<path d="M126.1,74.5H174V59.6H126.1V74.5Z" class="g0"/>
<path d="M173.8,74.5h47.9V59.6H173.8V74.5Z" class="g0"/>
<path d="M221.5,74.5h47.8V59.6H221.5V74.5Z" class="g0"/>
<path d="M269.1,74.5h51.4V59.6H269.1V74.5Z" class="g0"/>
<path d="M320.3,74.5h47.8V59.6H320.3V74.5Z" class="g0"/>
<path d="M367.9,74.5h47.9V59.6H367.9V74.5Z" class="g0"/>
<path d="M415.6,74.5h47.9V59.6H415.6V74.5Z" class="g0"/>
<path d="M463.3,74.5h47.8V59.6H463.3V74.5Z" class="g0"/>
<path d="M511,74.5h47.8V59.6H511V74.5Z" class="g0"/>
<path d="M558.6,74.5h47.9V59.6H558.6V74.5Z" class="g0"/>
<path d="M606.3,74.5h47.8V59.6H606.3V74.5Z" class="g0"/>
<path d="M654,74.5h47.8V59.6H654V74.5Z" class="g0"/>
<path d="M701.6,74.5h47.9V59.6H701.6V74.5Z" class="g0"/>
<path d="M749.3,74.5h47.8V59.6H749.3V74.5Z" class="g0"/>
<path d="M797,74.5h65.8V59.6H797V74.5Z" class="g0"/>
<g clip-path="url(#c0)">
<path d="M862.6,74.5h65.8V59.6H862.6V74.5Z" class="g0"/>
<path d="M39.2,100.1H78.6V74.3H39.2v25.8Z" class="g0"/>
</g>
<path d="M78.5,100.1h47.8V74.3H78.5v25.8Z" class="g0"/>
<path d="M126.1,100.1H174V74.3H126.1v25.8Z" class="g0"/>
<path d="M173.8,100.1h47.9V74.3H173.8v25.8Z" class="g0"/>
<path d="M221.5,100.1h47.8V74.3H221.5v25.8Z" class="g0"/>
<path d="M269.1,100.1h51.4V74.3H269.1v25.8Z" class="g0"/>
<path d="M320.3,100.1h47.8V74.3H320.3v25.8Z" class="g0"/>
<path d="M367.9,100.1h47.9V74.3H367.9v25.8Z" class="g0"/>
<path d="M415.6,100.1h47.9V74.3H415.6v25.8Z" class="g0"/>
<path d="M463.3,100.1h47.8V74.3H463.3v25.8Z" class="g0"/>
<path d="M511,100.1h47.8V74.3H511v25.8Z" class="g0"/>
<path d="M558.6,100.1h47.9V74.3H558.6v25.8Z" class="g0"/>
<path d="M606.3,100.1h47.8V74.3H606.3v25.8Z" class="g0"/>
<path d="M654,100.1h47.8V74.3H654v25.8Z" class="g0"/>
<path d="M701.6,100.1h47.9V74.3H701.6v25.8Z" class="g0"/>
<path d="M749.3,100.1h47.8V74.3H749.3v25.8Z" class="g0"/>
<path d="M797,100.1h65.8V74.3H797v25.8Z" class="g0"/>
<g clip-path="url(#c0)">
<path d="M862.6,100.1h65.8V74.3H862.6v25.8Z" class="g0"/>
<path d="M39.2,122.7H78.6V99.9H39.2v22.8Z" class="g0"/>
</g>
<path d="M78.5,122.7h47.8V99.9H78.5v22.8Z" class="g0"/>
<path d="M126.1,122.7H174V99.9H126.1v22.8Z" class="g0"/>
<path d="M173.8,122.7h47.9V99.9H173.8v22.8Z" class="g0"/>
<path d="M221.5,122.7h47.8V99.9H221.5v22.8Z" class="g0"/>
<path d="M269.1,122.7h51.4V99.9H269.1v22.8Z" class="g0"/>
<path d="M320.3,122.7h47.8V99.9H320.3v22.8Z" class="g0"/>
<path d="M367.9,122.7h47.9V99.9H367.9v22.8Z" class="g0"/>
<path d="M415.6,122.7h47.9V99.9H415.6v22.8Z" class="g0"/>
<path d="M463.3,122.7h47.8V99.9H463.3v22.8Z" class="g0"/>
<path d="M511,122.7h47.8V99.9H511v22.8Z" class="g0"/>
<path d="M558.6,122.7h47.9V99.9H558.6v22.8Z" class="g0"/>
<path d="M606.3,122.7h47.8V99.9H606.3v22.8Z" class="g0"/>
<path d="M654,122.7h47.8V99.9H654v22.8Z" class="g0"/>
<path d="M701.6,122.7h47.9V99.9H701.6v22.8Z" class="g0"/>
<path d="M749.3,122.7h47.8V99.9H749.3v22.8Z" class="g0"/>
<path d="M797,122.7h65.8V99.9H797v22.8Z" class="g0"/>
<g clip-path="url(#c0)">
<path d="M862.6,122.7h65.8V99.9H862.6v22.8Z" class="g0"/>
<path d="M39.2,130H78.6v-7.5H39.2V130Z" class="g0"/>
</g>
<path d="M78.5,130h47.8v-7.5H78.5V130Z" class="g0"/>
<path d="M126.1,130H174v-7.5H126.1V130Z" class="g0"/>
<path d="M173.8,130h47.9v-7.5H173.8V130Z" class="g0"/>
<path d="M221.5,130h47.8v-7.5H221.5V130Z" class="g0"/>
<path d="M269.1,130h51.4v-7.5H269.1V130Z" class="g0"/>
<path d="M320.3,130h47.8v-7.5H320.3V130Z" class="g0"/>
<path d="M367.9,130h47.9v-7.5H367.9V130Z" class="g0"/>
<path d="M415.6,130h47.9v-7.5H415.6V130Z" class="g0"/>
<path d="M463.3,130h47.8v-7.5H463.3V130Z" class="g0"/>
<path d="M511,130h47.8v-7.5H511V130Z" class="g0"/>
<path d="M558.6,130h47.9v-7.5H558.6V130Z" class="g0"/>
<path d="M606.3,130h47.8v-7.5H606.3V130Z" class="g0"/>
<path d="M654,130h47.8v-7.5H654V130Z" class="g0"/>
<path d="M701.6,130h47.9v-7.5H701.6V130Z" class="g0"/>
<path d="M749.3,130h47.8v-7.5H749.3V130Z" class="g0"/>
<path d="M797,130h65.8v-7.5H797V130Z" class="g0"/>
<g clip-path="url(#c0)">
<path d="M862.6,130h65.8v-7.5H862.6V130Z" class="g0"/>
<path d="M39.2,139.3H78.6v-9.5H39.2v9.5Z" class="g0"/>
</g>
<path d="M78.5,139.3h47.8v-9.5H78.5v9.5Z" class="g0"/>
<path d="M126.1,139.3H174v-9.5H126.1v9.5Z" class="g0"/>
<path d="M173.8,139.3h47.9v-9.5H173.8v9.5Z" class="g0"/>
<path d="M221.5,139.3h47.8v-9.5H221.5v9.5Z" class="g0"/>
<path d="M269.1,139.3h51.4v-9.5H269.1v9.5Z" class="g0"/>
<path d="M320.3,139.3h47.8v-9.5H320.3v9.5Z" class="g0"/>
<path d="M367.9,139.3h47.9v-9.5H367.9v9.5Z" class="g0"/>
<path d="M415.6,139.3h47.9v-9.5H415.6v9.5Z" class="g0"/>
<path d="M463.3,139.3h47.8v-9.5H463.3v9.5Z" class="g0"/>
<path d="M511,139.3h47.8v-9.5H511v9.5Z" class="g0"/>
<path d="M558.6,139.3h47.9v-9.5H558.6v9.5Z" class="g0"/>
<path d="M606.3,139.3h47.8v-9.5H606.3v9.5Z" class="g0"/>
<path d="M654,139.3h47.8v-9.5H654v9.5Z" class="g0"/>
<path d="M701.6,139.3h47.9v-9.5H701.6v9.5Z" class="g0"/>
<path d="M749.3,139.3h47.8v-9.5H749.3v9.5Z" class="g0"/>
<path d="M797,139.3h65.8v-9.5H797v9.5Z" class="g0"/>
<g clip-path="url(#c0)">
<path d="M862.6,139.3h65.8v-9.5H862.6v9.5Z" class="g0"/>
<path d="M39.2,161.2H78.6v-22H39.2v22Z" class="g1"/>
</g>
<path d="M78.5,161.2h47.8v-22H78.5v22Z" class="g1"/>
<path d="M126.1,161.2H174v-22H126.1v22Z" class="g1"/>
<path d="M173.8,161.2h47.9v-22H173.8v22Z" class="g1"/>
<path d="M221.5,161.2h47.8v-22H221.5v22Z" class="g1"/>
<path d="M269.1,161.2h51.4v-22H269.1v22Z" class="g1"/>
<path d="M320.3,161.2h47.8v-22H320.3v22Z" class="g1"/>
<path d="M367.9,161.2h47.9v-22H367.9v22Z" class="g1"/>
<path d="M415.6,161.2h47.9v-22H415.6v22Z" class="g1"/>
<path d="M463.3,161.2h47.8v-22H463.3v22Z" class="g1"/>
<path d="M511,161.2h47.8v-22H511v22Z" class="g1"/>
<path d="M558.6,161.2h47.9v-22H558.6v22Z" class="g1"/>
<path d="M606.3,161.2h47.8v-22H606.3v22Z" class="g1"/>
<path d="M654,161.2h47.8v-22H654v22Z" class="g1"/>
<path d="M701.6,161.2h47.9v-22H701.6v22Z" class="g1"/>
<path d="M749.3,161.2h47.8v-22H749.3v22Z" class="g1"/>
<path d="M797,161.2h65.8v-22H797v22Z" class="g0"/>
<g clip-path="url(#c0)">
<path d="M862.6,161.2h65.8v-22H862.6v22Z" class="g0"/>
<path d="M39.2,182.1H78.6V161H39.2v21.1Z" class="g1"/>
</g>
<path d="M78.5,182.1h47.8V161H78.5v21.1Z" class="g1"/>
<path d="M126.1,182.1H174V161H126.1v21.1Z" class="g1"/>
<path d="M173.8,182.1h47.9V161H173.8v21.1Z" class="g1"/>
<path d="M221.5,182.1h47.8V161H221.5v21.1Z" class="g1"/>
<path d="M269.1,182.1h51.4V161H269.1v21.1Z" class="g1"/>
<path d="M320.3,182.1h47.8V161H320.3v21.1Z" class="g1"/>
<path d="M367.9,182.1h47.9V161H367.9v21.1Z" class="g1"/>
<path d="M415.6,182.1h47.9V161H415.6v21.1Z" class="g1"/>
<path d="M463.3,182.1h47.8V161H463.3v21.1Z" class="g1"/>
<path d="M511,182.1h47.8V161H511v21.1Z" class="g1"/>
<path d="M558.6,182.1h47.9V161H558.6v21.1Z" class="g1"/>
<path d="M606.3,182.1h47.8V161H606.3v21.1Z" class="g1"/>
<path d="M654,182.1h47.8V161H654v21.1Z" class="g1"/>
<path d="M701.6,182.1h47.9V161H701.6v21.1Z" class="g1"/>
<path d="M749.3,182.1h47.8V161H749.3v21.1Z" class="g1"/>
<path d="M797,182.1h65.8V161H797v21.1Z" class="g0"/>
<g clip-path="url(#c0)">
<path d="M862.6,182.1h65.8V161H862.6v21.1Z" class="g0"/>
<path d="M39.2,203H78.6V181.9H39.2V203Z" class="g0"/>
</g>
<path d="M78.5,203h47.8V181.9H78.5V203Z" class="g0"/>
<path d="M126.1,203H174V181.9H126.1V203Z" class="g0"/>
<path d="M173.8,203h47.9V181.9H173.8V203Z" class="g0"/>
<path d="M221.5,203h47.8V181.9H221.5V203Z" class="g0"/>
<path d="M269.1,203h51.4V181.9H269.1V203Z" class="g0"/>
<path d="M320.3,203h47.8V181.9H320.3V203Z" class="g0"/>
<path d="M367.9,203h47.9V181.9H367.9V203Z" class="g0"/>
<path d="M415.6,203h47.9V181.9H415.6V203Z" class="g0"/>
<path d="M463.3,203h47.8V181.9H463.3V203Z" class="g0"/>
<path d="M511,203h47.8V181.9H511V203Z" class="g0"/>
<path d="M558.6,203h47.9V181.9H558.6V203Z" class="g0"/>
<path d="M606.3,203h47.8V181.9H606.3V203Z" class="g0"/>
<path d="M654,203h47.8V181.9H654V203Z" class="g0"/>
<path d="M701.6,203h47.9V181.9H701.6V203Z" class="g0"/>
<path d="M749.3,203h47.8V181.9H749.3V203Z" class="g0"/>
<path d="M797,203h65.8V181.9H797V203Z" class="g0"/>
<g clip-path="url(#c0)">
<path d="M862.6,203h65.8V181.9H862.6V203Z" class="g0"/>
<path d="M39.2,215.4H78.6V202.8H39.2v12.6Z" class="g0"/>
</g>
<path d="M78.5,215.4h47.8V202.8H78.5v12.6Z" class="g0"/>
<path d="M126.1,215.4H174V202.8H126.1v12.6Z" class="g0"/>
<path d="M173.8,215.4h47.9V202.8H173.8v12.6Z" class="g0"/>
<path d="M221.5,215.4h47.8V202.8H221.5v12.6Z" class="g0"/>
<path d="M269.1,215.4h51.4V202.8H269.1v12.6Z" class="g0"/>
<path d="M320.3,215.4h47.8V202.8H320.3v12.6Z" class="g0"/>
<path d="M367.9,215.4h47.9V202.8H367.9v12.6Z" class="g0"/>
<path d="M415.6,215.4h47.9V202.8H415.6v12.6Z" class="g0"/>
<path d="M463.3,215.4h47.8V202.8H463.3v12.6Z" class="g0"/>
<path d="M511,215.4h47.8V202.8H511v12.6Z" class="g0"/>
<path d="M558.6,215.4h47.9V202.8H558.6v12.6Z" class="g0"/>
<path d="M606.3,215.4h47.8V202.8H606.3v12.6Z" class="g0"/>
<path d="M654,215.4h47.8V202.8H654v12.6Z" class="g0"/>
<path d="M701.6,215.4h47.9V202.8H701.6v12.6Z" class="g0"/>
<path d="M749.3,215.4h47.8V202.8H749.3v12.6Z" class="g0"/>
<path d="M797,215.4h65.8V202.8H797v12.6Z" class="g0"/>
<g clip-path="url(#c0)">
<path d="M862.6,215.4h65.8V202.8H862.6v12.6Z" class="g0"/>
<path d="M39.2,229H78.6V215.3H39.2V229Z" class="g0"/>
</g>
<path d="M78.5,229h47.8V215.3H78.5V229Z" class="g0"/>
<path d="M126.1,229H174V215.3H126.1V229Z" class="g0"/>
<path d="M173.8,229h47.9V215.3H173.8V229Z" class="g0"/>
<path d="M221.5,229h47.8V215.3H221.5V229Z" class="g0"/>
<path d="M269.1,229h51.4V215.3H269.1V229Z" class="g0"/>
<path d="M320.3,229h47.8V215.3H320.3V229Z" class="g0"/>
<path d="M367.9,229h47.9V215.3H367.9V229Z" class="g0"/>
<path d="M415.6,229h47.9V215.3H415.6V229Z" class="g0"/>
<path d="M463.3,229h47.8V215.3H463.3V229Z" class="g0"/>
<path d="M511,229h47.8V215.3H511V229Z" class="g0"/>
<path d="M558.6,229h47.9V215.3H558.6V229Z" class="g0"/>
<path d="M606.3,229h47.8V215.3H606.3V229Z" class="g0"/>
<path d="M654,229h47.8V215.3H654V229Z" class="g0"/>
<path d="M701.6,229h47.9V215.3H701.6V229Z" class="g0"/>
<path d="M749.3,229h47.8V215.3H749.3V229Z" class="g0"/>
<path d="M797,229h65.8V215.3H797V229Z" class="g0"/>
<g clip-path="url(#c0)">
<path d="M862.6,229h65.8V215.3H862.6V229Z" class="g0"/>
<path d="M39.2,246.8H78.6v-18H39.2v18Z" class="g0"/>
</g>
<path d="M78.5,246.8h47.8v-18H78.5v18Z" class="g0"/>
<path d="M126.1,246.8H174v-18H126.1v18Z" class="g0"/>
<path d="M173.8,246.8h47.9v-18H173.8v18Z" class="g0"/>
<path d="M221.5,246.8h47.8v-18H221.5v18Z" class="g0"/>
<path d="M269.1,246.8h51.4v-18H269.1v18Z" class="g0"/>
<path d="M320.3,246.8h47.8v-18H320.3v18Z" class="g0"/>
<path d="M367.9,246.8h47.9v-18H367.9v18Z" class="g0"/>
<path d="M415.6,246.8h47.9v-18H415.6v18Z" class="g0"/>
<path d="M463.3,246.8h47.8v-18H463.3v18Z" class="g0"/>
<path d="M511,246.8h47.8v-18H511v18Z" class="g0"/>
<path d="M558.6,246.8h47.9v-18H558.6v18Z" class="g0"/>
<path d="M606.3,246.8h47.8v-18H606.3v18Z" class="g0"/>
<path d="M654,246.8h47.8v-18H654v18Z" class="g0"/>
<path d="M701.6,246.8h47.9v-18H701.6v18Z" class="g0"/>
<path d="M749.3,246.8h47.8v-18H749.3v18Z" class="g0"/>
<path d="M797,246.8h65.8v-18H797v18Z" class="g0"/>
<g clip-path="url(#c0)">
<path d="M862.6,246.8h65.8v-18H862.6v18Z" class="g0"/>
<path d="M39.2,263.5H78.6V246.6H39.2v16.9Z" class="g0"/>
</g>
<path d="M78.5,263.5h47.8V246.6H78.5v16.9Z" class="g0"/>
<path d="M126.1,263.5H174V246.6H126.1v16.9Z" class="g0"/>
<path d="M173.8,263.5h47.9V246.6H173.8v16.9Z" class="g0"/>
<path d="M221.5,263.5h47.8V246.6H221.5v16.9Z" class="g0"/>
<path d="M269.1,263.5h51.4V246.6H269.1v16.9Z" class="g0"/>
<path d="M320.3,263.5h47.8V246.6H320.3v16.9Z" class="g0"/>
<path d="M367.9,263.5h47.9V246.6H367.9v16.9Z" class="g0"/>
<path d="M415.6,263.5h47.9V246.6H415.6v16.9Z" class="g0"/>
<path d="M463.3,263.5h47.8V246.6H463.3v16.9Z" class="g0"/>
<path d="M511,263.5h47.8V246.6H511v16.9Z" class="g0"/>
<path d="M558.6,263.5h47.9V246.6H558.6v16.9Z" class="g0"/>
<path d="M606.3,263.5h47.8V246.6H606.3v16.9Z" class="g0"/>
<path d="M654,263.5h47.8V246.6H654v16.9Z" class="g0"/>
<path d="M701.6,263.5h47.9V246.6H701.6v16.9Z" class="g0"/>
<path d="M749.3,263.5h47.8V246.6H749.3v16.9Z" class="g0"/>
<path d="M797,263.5h65.8V246.6H797v16.9Z" class="g0"/>
<g clip-path="url(#c0)">
<path d="M862.6,263.5h65.8V246.6H862.6v16.9Z" class="g0"/>
<path d="M39.2,281.2H78.6V263.3H39.2v17.9Z" class="g0"/>
</g>
<path d="M78.5,281.2h47.8V263.3H78.5v17.9Z" class="g0"/>
<path d="M126.1,281.2H174V263.3H126.1v17.9Z" class="g0"/>
<path d="M173.8,281.2h47.9V263.3H173.8v17.9Z" class="g0"/>
<path d="M221.5,281.2h47.8V263.3H221.5v17.9Z" class="g0"/>
<path d="M269.1,281.2h51.4V263.3H269.1v17.9Z" class="g0"/>
<path d="M320.3,281.2h47.8V263.3H320.3v17.9Z" class="g0"/>
<path d="M367.9,281.2h47.9V263.3H367.9v17.9Z" class="g0"/>
<path d="M415.6,281.2h47.9V263.3H415.6v17.9Z" class="g0"/>
<path d="M463.3,281.2h47.8V263.3H463.3v17.9Z" class="g0"/>
<path d="M511,281.2h47.8V263.3H511v17.9Z" class="g0"/>
<path d="M558.6,281.2h47.9V263.3H558.6v17.9Z" class="g0"/>
<path d="M606.3,281.2h47.8V263.3H606.3v17.9Z" class="g0"/>
<path d="M654,281.2h47.8V263.3H654v17.9Z" class="g0"/>
<path d="M701.6,281.2h47.9V263.3H701.6v17.9Z" class="g0"/>
<path d="M749.3,281.2h47.8V263.3H749.3v17.9Z" class="g0"/>
<path d="M797,281.2h65.8V263.3H797v17.9Z" class="g0"/>
<g clip-path="url(#c0)">
<path d="M862.6,281.2h65.8V263.3H862.6v17.9Z" class="g0"/>
<path d="M39.2,299H78.6V281.1H39.2V299Z" class="g0"/>
</g>
<path d="M78.5,299h47.8V281.1H78.5V299Z" class="g0"/>
<path d="M126.1,299H174V281.1H126.1V299Z" class="g0"/>
<path d="M173.8,299h47.9V281.1H173.8V299Z" class="g0"/>
<path d="M221.5,299h47.8V281.1H221.5V299Z" class="g0"/>
<path d="M269.1,299h51.4V281.1H269.1V299Z" class="g0"/>
<path d="M320.3,299h47.8V281.1H320.3V299Z" class="g0"/>
<path d="M367.9,299h47.9V281.1H367.9V299Z" class="g0"/>
<path d="M415.6,299h47.9V281.1H415.6V299Z" class="g0"/>
<path d="M463.3,299h47.8V281.1H463.3V299Z" class="g0"/>
<path d="M511,299h47.8V281.1H511V299Z" class="g0"/>
<path d="M558.6,299h47.9V281.1H558.6V299Z" class="g0"/>
<path d="M606.3,299h47.8V281.1H606.3V299Z" class="g0"/>
<path d="M654,299h47.8V281.1H654V299Z" class="g0"/>
<path d="M701.6,299h47.9V281.1H701.6V299Z" class="g0"/>
<path d="M749.3,299h47.8V281.1H749.3V299Z" class="g0"/>
<path d="M797,299h65.8V281.1H797V299Z" class="g0"/>
<g clip-path="url(#c0)">
<path d="M862.6,299h65.8V281.1H862.6V299Z" class="g0"/>
<path d="M39.2,316.8H78.6V298.9H39.2v17.9Z" class="g0"/>
</g>
<path d="M78.5,316.8h47.8V298.9H78.5v17.9Z" class="g0"/>
<path d="M126.1,316.8H174V298.9H126.1v17.9Z" class="g0"/>
<path d="M173.8,316.8h47.9V298.9H173.8v17.9Z" class="g0"/>
<path d="M221.5,316.8h47.8V298.9H221.5v17.9Z" class="g0"/>
<path d="M269.1,316.8h51.4V298.9H269.1v17.9Z" class="g0"/>
<path d="M320.3,316.8h47.8V298.9H320.3v17.9Z" class="g0"/>
<path d="M367.9,316.8h47.9V298.9H367.9v17.9Z" class="g0"/>
<path d="M415.6,316.8h47.9V298.9H415.6v17.9Z" class="g0"/>
<path d="M463.3,316.8h47.8V298.9H463.3v17.9Z" class="g0"/>
<path d="M511,316.8h47.8V298.9H511v17.9Z" class="g0"/>
<path d="M558.6,316.8h47.9V298.9H558.6v17.9Z" class="g0"/>
<path d="M606.3,316.8h47.8V298.9H606.3v17.9Z" class="g0"/>
<path d="M654,316.8h47.8V298.9H654v17.9Z" class="g0"/>
<path d="M701.6,316.8h47.9V298.9H701.6v17.9Z" class="g0"/>
<path d="M749.3,316.8h47.8V298.9H749.3v17.9Z" class="g0"/>
<path d="M797,316.8h65.8V298.9H797v17.9Z" class="g0"/>
<g clip-path="url(#c0)">
<path d="M862.6,316.8h65.8V298.9H862.6v17.9Z" class="g0"/>
<path d="M39.2,326.2H78.6v-9.6H39.2v9.6Z" class="g0"/>
</g>
<path d="M78.5,326.2h47.8v-9.6H78.5v9.6Z" class="g0"/>
<path d="M126.1,326.2H174v-9.6H126.1v9.6Z" class="g0"/>
<path d="M173.8,326.2h47.9v-9.6H173.8v9.6Z" class="g0"/>
<path d="M221.5,326.2h47.8v-9.6H221.5v9.6Z" class="g0"/>
<path d="M269.1,326.2h51.4v-9.6H269.1v9.6Z" class="g0"/>
<path d="M320.3,326.2h47.8v-9.6H320.3v9.6Z" class="g0"/>
<path d="M367.9,326.2h47.9v-9.6H367.9v9.6Z" class="g0"/>
<path d="M415.6,326.2h47.9v-9.6H415.6v9.6Z" class="g0"/>
<path d="M463.3,326.2h47.8v-9.6H463.3v9.6Z" class="g0"/>
<path d="M511,326.2h47.8v-9.6H511v9.6Z" class="g0"/>
<path d="M558.6,326.2h47.9v-9.6H558.6v9.6Z" class="g0"/>
<path d="M606.3,326.2h47.8v-9.6H606.3v9.6Z" class="g0"/>
<path d="M654,326.2h47.8v-9.6H654v9.6Z" class="g0"/>
<path d="M701.6,326.2h47.9v-9.6H701.6v9.6Z" class="g0"/>
<path d="M749.3,326.2h47.8v-9.6H749.3v9.6Z" class="g0"/>
<path d="M797,326.2h65.8v-9.6H797v9.6Z" class="g0"/>
<g clip-path="url(#c0)">
<path d="M862.6,326.2h65.8v-9.6H862.6v9.6Z" class="g0"/>
<path d="M39.2,348.4H78.6V326H39.2v22.4Z" class="g1"/>
</g>
<path d="M78.5,348.4h47.8V326H78.5v22.4Z" class="g1"/>
<path d="M126.1,348.4H174V326H126.1v22.4Z" class="g1"/>
<path d="M173.8,348.4h47.9V326H173.8v22.4Z" class="g1"/>
<path d="M221.5,348.4h47.8V326H221.5v22.4Z" class="g1"/>
<path d="M269.1,348.4h51.4V326H269.1v22.4Z" class="g1"/>
<path d="M320.3,348.4h47.8V326H320.3v22.4Z" class="g1"/>
<path d="M367.9,348.4h47.9V326H367.9v22.4Z" class="g1"/>
<path d="M415.6,348.4h47.9V326H415.6v22.4Z" class="g1"/>
<path d="M463.3,348.4h47.8V326H463.3v22.4Z" class="g1"/>
<path d="M511,348.4h47.8V326H511v22.4Z" class="g1"/>
<path d="M558.6,348.4h47.9V326H558.6v22.4Z" class="g1"/>
<path d="M606.3,348.4h47.8V326H606.3v22.4Z" class="g1"/>
<path d="M654,348.4h47.8V326H654v22.4Z" class="g1"/>
<path d="M701.6,348.4h47.9V326H701.6v22.4Z" class="g1"/>
<path d="M749.3,348.4h47.8V326H749.3v22.4Z" class="g1"/>
<path d="M797,348.4h65.8V326H797v22.4Z" class="g0"/>
<g clip-path="url(#c0)">
<path d="M862.6,348.4h65.8V326H862.6v22.4Z" class="g0"/>
<path d="M39.2,370.5H78.6V348.2H39.2v22.3Z" class="g1"/>
</g>
<path d="M78.5,370.5h47.8V348.2H78.5v22.3Z" class="g1"/>
<path d="M126.1,370.5H174V348.2H126.1v22.3Z" class="g1"/>
<path d="M173.8,370.5h47.9V348.2H173.8v22.3Z" class="g1"/>
<path d="M221.5,370.5h47.8V348.2H221.5v22.3Z" class="g1"/>
<path d="M269.1,370.5h51.4V348.2H269.1v22.3Z" class="g1"/>
<path d="M320.3,370.5h47.8V348.2H320.3v22.3Z" class="g1"/>
<path d="M367.9,370.5h47.9V348.2H367.9v22.3Z" class="g1"/>
<path d="M415.6,370.5h47.9V348.2H415.6v22.3Z" class="g1"/>
<path d="M463.3,370.5h47.8V348.2H463.3v22.3Z" class="g1"/>
<path d="M511,370.5h47.8V348.2H511v22.3Z" class="g1"/>
<path d="M558.6,370.5h47.9V348.2H558.6v22.3Z" class="g1"/>
<path d="M606.3,370.5h47.8V348.2H606.3v22.3Z" class="g1"/>
<path d="M654,370.5h47.8V348.2H654v22.3Z" class="g1"/>
<path d="M701.6,370.5h47.9V348.2H701.6v22.3Z" class="g1"/>
<path d="M749.3,370.5h47.8V348.2H749.3v22.3Z" class="g1"/>
<path d="M797,370.5h65.8V348.2H797v22.3Z" class="g0"/>
<g clip-path="url(#c0)">
<path d="M862.6,370.5h65.8V348.2H862.6v22.3Z" class="g0"/>
<path d="M39.2,391.8H78.6V370.3H39.2v21.5Z" class="g2"/>
</g>
<path d="M78.5,391.8h47.8V370.3H78.5v21.5Z" class="g2"/>
<path d="M126.1,391.8H174V370.3H126.1v21.5Z" class="g2"/>
<path d="M173.8,391.8h47.9V370.3H173.8v21.5Z" class="g2"/>
<path d="M221.5,391.8h47.8V370.3H221.5v21.5Z" class="g2"/>
<path d="M269.1,391.8h51.4V370.3H269.1v21.5Z" class="g2"/>
<path d="M320.3,391.8h47.8V370.3H320.3v21.5Z" class="g2"/>
<path d="M367.9,391.8h47.9V370.3H367.9v21.5Z" class="g2"/>
<path d="M415.6,391.8h47.9V370.3H415.6v21.5Z" class="g2"/>
<path d="M463.3,391.8h47.8V370.3H463.3v21.5Z" class="g2"/>
<path d="M511,391.8h47.8V370.3H511v21.5Z" class="g2"/>
<path d="M558.6,391.8h47.9V370.3H558.6v21.5Z" class="g2"/>
<path d="M606.3,391.8h47.8V370.3H606.3v21.5Z" class="g2"/>
<path d="M654,391.8h47.8V370.3H654v21.5Z" class="g2"/>
<path d="M701.6,391.8h47.9V370.3H701.6v21.5Z" class="g2"/>
<path d="M749.3,391.8h47.8V370.3H749.3v21.5Z" class="g2"/>
<path d="M797,391.8h65.8V370.3H797v21.5Z" class="g0"/>
<g clip-path="url(#c0)">
<path d="M862.6,391.8h65.8V370.3H862.6v21.5Z" class="g0"/>
<path d="M39.2,413.1H78.6V391.6H39.2v21.5Z" class="g2"/>
</g>
<path d="M78.5,413.1h47.8V391.6H78.5v21.5Z" class="g2"/>
<path d="M126.1,413.1H174V391.6H126.1v21.5Z" class="g2"/>
<path d="M173.8,413.1h47.9V391.6H173.8v21.5Z" class="g2"/>
<path d="M221.5,413.1h47.8V391.6H221.5v21.5Z" class="g2"/>
<path d="M269.1,413.1h51.4V391.6H269.1v21.5Z" class="g2"/>
<path d="M320.3,413.1h47.8V391.6H320.3v21.5Z" class="g2"/>
<path d="M367.9,413.1h47.9V391.6H367.9v21.5Z" class="g2"/>
<path d="M415.6,413.1h47.9V391.6H415.6v21.5Z" class="g2"/>
<path d="M463.3,413.1h47.8V391.6H463.3v21.5Z" class="g2"/>
<path d="M511,413.1h47.8V391.6H511v21.5Z" class="g2"/>
<path d="M558.6,413.1h47.9V391.6H558.6v21.5Z" class="g2"/>
<path d="M606.3,413.1h47.8V391.6H606.3v21.5Z" class="g2"/>
<path d="M654,413.1h47.8V391.6H654v21.5Z" class="g2"/>
<path d="M701.6,413.1h47.9V391.6H701.6v21.5Z" class="g2"/>
<path d="M749.3,413.1h47.8V391.6H749.3v21.5Z" class="g2"/>
<path d="M797,413.1h65.8V391.6H797v21.5Z" class="g0"/>
<g clip-path="url(#c0)">
<path d="M862.6,413.1h65.8V391.6H862.6v21.5Z" class="g0"/>
<path d="M39.2,434.3H78.6V412.9H39.2v21.4Z" class="g3"/>
</g>
<path d="M78.5,434.3h47.8V412.9H78.5v21.4Z" class="g3"/>
<path d="M126.1,434.3H174V412.9H126.1v21.4Z" class="g3"/>
<path d="M173.8,434.3h47.9V412.9H173.8v21.4Z" class="g3"/>
<path d="M221.5,434.3h47.8V412.9H221.5v21.4Z" class="g3"/>
<path d="M269.1,434.3h51.4V412.9H269.1v21.4Z" class="g3"/>
<path d="M320.3,434.3h47.8V412.9H320.3v21.4Z" class="g3"/>
<path d="M367.9,434.3h47.9V412.9H367.9v21.4Z" class="g3"/>
<path d="M415.6,434.3h47.9V412.9H415.6v21.4Z" class="g3"/>
<path d="M463.3,434.3h47.8V412.9H463.3v21.4Z" class="g3"/>
<path d="M511,434.3h47.8V412.9H511v21.4Z" class="g3"/>
<path d="M558.6,434.3h47.9V412.9H558.6v21.4Z" class="g3"/>
<path d="M606.3,434.3h47.8V412.9H606.3v21.4Z" class="g3"/>
<path d="M654,434.3h47.8V412.9H654v21.4Z" class="g3"/>
<path d="M701.6,434.3h47.9V412.9H701.6v21.4Z" class="g3"/>
<path d="M749.3,434.3h47.8V412.9H749.3v21.4Z" class="g3"/>
<path d="M797,434.3h65.8V412.9H797v21.4Z" class="g0"/>
<g clip-path="url(#c0)">
<path d="M862.6,434.3h65.8V412.9H862.6v21.4Z" class="g0"/>
<path d="M39.2,472.8H78.6V434.2H39.2v38.6Z" class="g4"/>
</g>
<path d="M78.5,472.8h47.8V434.2H78.5v38.6Z" class="g4"/>
<path d="M126.1,472.8H174V434.2H126.1v38.6Z" class="g4"/>
<path d="M173.8,472.8h47.9V434.2H173.8v38.6Z" class="g4"/>
<path d="M221.5,472.8h47.8V434.2H221.5v38.6Z" class="g4"/>
<path d="M269.1,472.8h51.4V434.2H269.1v38.6Z" class="g4"/>
<path d="M320.3,472.8h47.8V434.2H320.3v38.6Z" class="g4"/>
<path d="M367.9,472.8h47.9V434.2H367.9v38.6Z" class="g4"/>
<path d="M415.6,472.8h47.9V434.2H415.6v38.6Z" class="g4"/>
<path d="M463.3,472.8h47.8V434.2H463.3v38.6Z" class="g4"/>
<path d="M511,472.8h47.8V434.2H511v38.6Z" class="g4"/>
<path d="M558.6,472.8h47.9V434.2H558.6v38.6Z" class="g4"/>
<path d="M606.3,472.8h47.8V434.2H606.3v38.6Z" class="g4"/>
<path d="M654,472.8h47.8V434.2H654v38.6Z" class="g4"/>
<path d="M701.6,472.8h47.9V434.2H701.6v38.6Z" class="g4"/>
<path d="M749.3,472.8h47.8V434.2H749.3v38.6Z" class="g4"/>
<path d="M797,472.8h65.8V434.2H797v38.6Z" class="g0"/>
<g clip-path="url(#c0)">
<path d="M862.6,472.8h65.8V434.2H862.6v38.6Z" class="g0"/>
<path d="M39.2,494.1H78.6V472.6H39.2v21.5Z" class="g0"/>
</g>
<path d="M78.5,494.1h47.8V472.6H78.5v21.5Z" class="g0"/>
<path d="M126.1,494.1H174V472.6H126.1v21.5Z" class="g0"/>
<path d="M173.8,494.1h47.9V472.6H173.8v21.5Z" class="g0"/>
<path d="M221.5,494.1h47.8V472.6H221.5v21.5Z" class="g0"/>
<path d="M269.1,494.1h51.4V472.6H269.1v21.5Z" class="g0"/>
<path d="M320.3,494.1h47.8V472.6H320.3v21.5Z" class="g0"/>
<path d="M367.9,494.1h47.9V472.6H367.9v21.5Z" class="g0"/>
<path d="M415.6,494.1h47.9V472.6H415.6v21.5Z" class="g0"/>
<path d="M463.3,494.1h47.8V472.6H463.3v21.5Z" class="g0"/>
<path d="M511,494.1h47.8V472.6H511v21.5Z" class="g0"/>
<path d="M558.6,494.1h47.9V472.6H558.6v21.5Z" class="g0"/>
<path d="M606.3,494.1h47.8V472.6H606.3v21.5Z" class="g0"/>
<path d="M654,494.1h47.8V472.6H654v21.5Z" class="g0"/>
<path d="M701.6,494.1h47.9V472.6H701.6v21.5Z" class="g0"/>
<path d="M749.3,494.1h47.8V472.6H749.3v21.5Z" class="g0"/>
<path d="M797,494.1h65.8V472.6H797v21.5Z" class="g0"/>
<g clip-path="url(#c0)">
<path d="M862.6,494.1h65.8V472.6H862.6v21.5Z" class="g0"/>
<path d="M39.2,515.4H78.6V493.9H39.2v21.5Z" class="g0"/>
</g>
<path d="M78.5,515.4h47.8V493.9H78.5v21.5Z" class="g0"/>
<path d="M126.1,515.4H174V493.9H126.1v21.5Z" class="g0"/>
<path d="M173.8,515.4h47.9V493.9H173.8v21.5Z" class="g0"/>
<path d="M221.5,515.4h47.8V493.9H221.5v21.5Z" class="g0"/>
<path d="M269.1,515.4h51.4V493.9H269.1v21.5Z" class="g0"/>
<path d="M320.3,515.4h47.8V493.9H320.3v21.5Z" class="g0"/>
<path d="M367.9,515.4h47.9V493.9H367.9v21.5Z" class="g0"/>
<path d="M415.6,515.4h47.9V493.9H415.6v21.5Z" class="g0"/>
<path d="M463.3,515.4h47.8V493.9H463.3v21.5Z" class="g0"/>
<path d="M511,515.4h47.8V493.9H511v21.5Z" class="g0"/>
<path d="M558.6,515.4h47.9V493.9H558.6v21.5Z" class="g0"/>
<path d="M606.3,515.4h47.8V493.9H606.3v21.5Z" class="g0"/>
<path d="M654,515.4h47.8V493.9H654v21.5Z" class="g0"/>
<path d="M701.6,515.4h47.9V493.9H701.6v21.5Z" class="g0"/>
<path d="M749.3,515.4h47.8V493.9H749.3v21.5Z" class="g0"/>
<path d="M797,515.4h65.8V493.9H797v21.5Z" class="g0"/>
<g clip-path="url(#c0)">
<path d="M862.6,515.4h65.8V493.9H862.6v21.5Z" class="g0"/>
<path d="M39.2,536.6H78.6V515.2H39.2v21.4Z" class="g0"/>
</g>
<path d="M78.5,536.6h47.8V515.2H78.5v21.4Z" class="g0"/>
<path d="M126.1,536.6H174V515.2H126.1v21.4Z" class="g0"/>
<path d="M173.8,536.6h47.9V515.2H173.8v21.4Z" class="g0"/>
<path d="M221.5,536.6h47.8V515.2H221.5v21.4Z" class="g0"/>
<path d="M269.1,536.6h51.4V515.2H269.1v21.4Z" class="g0"/>
<path d="M320.3,536.6h47.8V515.2H320.3v21.4Z" class="g0"/>
<path d="M367.9,536.6h47.9V515.2H367.9v21.4Z" class="g0"/>
<path d="M415.6,536.6h47.9V515.2H415.6v21.4Z" class="g0"/>
<path d="M463.3,536.6h47.8V515.2H463.3v21.4Z" class="g0"/>
<path d="M511,536.6h47.8V515.2H511v21.4Z" class="g0"/>
<path d="M558.6,536.6h47.9V515.2H558.6v21.4Z" class="g0"/>
<path d="M606.3,536.6h47.8V515.2H606.3v21.4Z" class="g0"/>
<path d="M654,536.6h47.8V515.2H654v21.4Z" class="g0"/>
<path d="M701.6,536.6h47.9V515.2H701.6v21.4Z" class="g0"/>
<path d="M749.3,536.6h47.8V515.2H749.3v21.4Z" class="g0"/>
<path d="M797,536.6h65.8V515.2H797v21.4Z" class="g0"/>
<g clip-path="url(#c0)">
<path d="M862.6,536.6h65.8V515.2H862.6v21.4Z" class="g0"/>
<path d="M39.2,557.9H78.6V536.4H39.2v21.5Z" class="g0"/>
</g>
<path d="M78.5,557.9h47.8V536.4H78.5v21.5Z" class="g0"/>
<path d="M126.1,557.9H174V536.4H126.1v21.5Z" class="g0"/>
<path d="M173.8,557.9h47.9V536.4H173.8v21.5Z" class="g0"/>
<path d="M221.5,557.9h47.8V536.4H221.5v21.5Z" class="g0"/>
<path d="M269.1,557.9h51.4V536.4H269.1v21.5Z" class="g0"/>
<path d="M320.3,557.9h47.8V536.4H320.3v21.5Z" class="g0"/>
<path d="M367.9,557.9h47.9V536.4H367.9v21.5Z" class="g0"/>
<path d="M415.6,557.9h47.9V536.4H415.6v21.5Z" class="g0"/>
<path d="M463.3,557.9h47.8V536.4H463.3v21.5Z" class="g0"/>
<path d="M511,557.9h47.8V536.4H511v21.5Z" class="g0"/>
<path d="M558.6,557.9h47.9V536.4H558.6v21.5Z" class="g0"/>
<path d="M606.3,557.9h47.8V536.4H606.3v21.5Z" class="g0"/>
<path d="M654,557.9h47.8V536.4H654v21.5Z" class="g0"/>
<path d="M701.6,557.9h47.9V536.4H701.6v21.5Z" class="g0"/>
<path d="M749.3,557.9h47.8V536.4H749.3v21.5Z" class="g0"/>
<path d="M797,557.9h65.8V536.4H797v21.5Z" class="g0"/>
<g clip-path="url(#c0)">
<path d="M862.6,557.9h65.8V536.4H862.6v21.5Z" class="g0"/>
<path d="M39.2,579.2H78.6V557.7H39.2v21.5Z" class="g0"/>
</g>
<path d="M78.5,579.2h47.8V557.7H78.5v21.5Z" class="g0"/>
<path d="M126.1,579.2H174V557.7H126.1v21.5Z" class="g0"/>
<path d="M173.8,579.2h47.9V557.7H173.8v21.5Z" class="g0"/>
<path d="M221.5,579.2h47.8V557.7H221.5v21.5Z" class="g0"/>
<path d="M269.1,579.2h51.4V557.7H269.1v21.5Z" class="g0"/>
<path d="M320.3,579.2h47.8V557.7H320.3v21.5Z" class="g0"/>
<path d="M367.9,579.2h47.9V557.7H367.9v21.5Z" class="g0"/>
<path d="M415.6,579.2h47.9V557.7H415.6v21.5Z" class="g0"/>
<path d="M463.3,579.2h47.8V557.7H463.3v21.5Z" class="g0"/>
<path d="M511,579.2h47.8V557.7H511v21.5Z" class="g0"/>
<path d="M558.6,579.2h47.9V557.7H558.6v21.5Z" class="g0"/>
<path d="M606.3,579.2h47.8V557.7H606.3v21.5Z" class="g0"/>
<path d="M654,579.2h47.8V557.7H654v21.5Z" class="g0"/>
<path d="M701.6,579.2h47.9V557.7H701.6v21.5Z" class="g0"/>
<path d="M749.3,579.2h47.8V557.7H749.3v21.5Z" class="g0"/>
<path d="M797,579.2h65.8V557.7H797v21.5Z" class="g0"/>
<g clip-path="url(#c0)">
<path d="M862.6,579.2h65.8V557.7H862.6v21.5Z" class="g0"/>
<path d="M39.2,600.4H78.6V579H39.2v21.4Z" class="g0"/>
</g>
<path d="M78.5,600.4h47.8V579H78.5v21.4Z" class="g0"/>
<path d="M126.1,600.4H174V579H126.1v21.4Z" class="g0"/>
<path d="M173.8,600.4h47.9V579H173.8v21.4Z" class="g0"/>
<path d="M221.5,600.4h47.8V579H221.5v21.4Z" class="g0"/>
<path d="M269.1,600.4h51.4V579H269.1v21.4Z" class="g0"/>
<path d="M320.3,600.4h47.8V579H320.3v21.4Z" class="g0"/>
<path d="M367.9,600.4h47.9V579H367.9v21.4Z" class="g0"/>
<path d="M415.6,600.4h47.9V579H415.6v21.4Z" class="g0"/>
<path d="M463.3,600.4h47.8V579H463.3v21.4Z" class="g0"/>
<path d="M511,600.4h47.8V579H511v21.4Z" class="g0"/>
<path d="M558.6,600.4h47.9V579H558.6v21.4Z" class="g0"/>
<path d="M606.3,600.4h47.8V579H606.3v21.4Z" class="g0"/>
<path d="M654,600.4h47.8V579H654v21.4Z" class="g0"/>
<path d="M701.6,600.4h47.9V579H701.6v21.4Z" class="g0"/>
<path d="M749.3,600.4h47.8V579H749.3v21.4Z" class="g0"/>
<path d="M797,600.4h65.8V579H797v21.4Z" class="g0"/>
<g clip-path="url(#c0)">
<path d="M862.6,600.4h65.8V579H862.6v21.4Z" class="g0"/>
<path d="M39.2,621.7H78.6V600.2H39.2v21.5Z" class="g0"/>
</g>
<path d="M78.5,621.7h47.8V600.2H78.5v21.5Z" class="g0"/>
<path d="M126.1,621.7H174V600.2H126.1v21.5Z" class="g0"/>
<path d="M173.8,621.7h47.9V600.2H173.8v21.5Z" class="g0"/>
<path d="M221.5,621.7h47.8V600.2H221.5v21.5Z" class="g0"/>
<path d="M269.1,621.7h51.4V600.2H269.1v21.5Z" class="g0"/>
<path d="M320.3,621.7h47.8V600.2H320.3v21.5Z" class="g0"/>
<path d="M367.9,621.7h47.9V600.2H367.9v21.5Z" class="g0"/>
<path d="M415.6,621.7h47.9V600.2H415.6v21.5Z" class="g0"/>
<path d="M463.3,621.7h47.8V600.2H463.3v21.5Z" class="g0"/>
<path d="M511,621.7h47.8V600.2H511v21.5Z" class="g0"/>
<path d="M558.6,621.7h47.9V600.2H558.6v21.5Z" class="g0"/>
<path d="M606.3,621.7h47.8V600.2H606.3v21.5Z" class="g0"/>
<path d="M654,621.7h47.8V600.2H654v21.5Z" class="g0"/>
<path d="M701.6,621.7h47.9V600.2H701.6v21.5Z" class="g0"/>
<path d="M749.3,621.7h47.8V600.2H749.3v21.5Z" class="g0"/>
<path d="M797,621.7h65.8V600.2H797v21.5Z" class="g0"/>
<g clip-path="url(#c0)">
<path d="M862.6,621.7h65.8V600.2H862.6v21.5Z" class="g0"/>
<path d="M39.2,643H78.6V621.5H39.2V643Z" class="g0"/>
</g>
<path d="M78.5,643h47.8V621.5H78.5V643Z" class="g0"/>
<path d="M126.1,643H174V621.5H126.1V643Z" class="g0"/>
<path d="M173.8,643h47.9V621.5H173.8V643Z" class="g0"/>
<path d="M221.5,643h47.8V621.5H221.5V643Z" class="g0"/>
<path d="M269.1,643h51.4V621.5H269.1V643Z" class="g0"/>
<path d="M320.3,643h47.8V621.5H320.3V643Z" class="g0"/>
<path d="M367.9,643h47.9V621.5H367.9V643Z" class="g0"/>
<path d="M415.6,643h47.9V621.5H415.6V643Z" class="g0"/>
<path d="M463.3,643h47.8V621.5H463.3V643Z" class="g0"/>
<path d="M511,643h47.8V621.5H511V643Z" class="g0"/>
<path d="M558.6,643h47.9V621.5H558.6V643Z" class="g0"/>
<path d="M606.3,643h47.8V621.5H606.3V643Z" class="g0"/>
<path d="M654,643h47.8V621.5H654V643Z" class="g0"/>
<path d="M701.6,643h47.9V621.5H701.6V643Z" class="g0"/>
<path d="M749.3,643h47.8V621.5H749.3V643Z" class="g0"/>
<path d="M797,643h65.8V621.5H797V643Z" class="g0"/>
<g clip-path="url(#c0)">
<path d="M862.6,643h65.8V621.5H862.6V643Z" class="g0"/>
<path d="M39.2,664.2H78.6V642.8H39.2v21.4Z" class="g0"/>
</g>
<path d="M78.5,664.2h47.8V642.8H78.5v21.4Z" class="g0"/>
<path d="M126.1,664.2H174V642.8H126.1v21.4Z" class="g0"/>
<path d="M173.8,664.2h47.9V642.8H173.8v21.4Z" class="g0"/>
<path d="M221.5,664.2h47.8V642.8H221.5v21.4Z" class="g0"/>
<path d="M269.1,664.2h51.4V642.8H269.1v21.4Z" class="g0"/>
<path d="M320.3,664.2h47.8V642.8H320.3v21.4Z" class="g0"/>
<path d="M367.9,664.2h47.9V642.8H367.9v21.4Z" class="g0"/>
<path d="M415.6,664.2h47.9V642.8H415.6v21.4Z" class="g0"/>
<path d="M463.3,664.2h47.8V642.8H463.3v21.4Z" class="g0"/>
<path d="M511,664.2h47.8V642.8H511v21.4Z" class="g0"/>
<path d="M558.6,664.2h47.9V642.8H558.6v21.4Z" class="g0"/>
<path d="M606.3,664.2h47.8V642.8H606.3v21.4Z" class="g0"/>
<path d="M654,664.2h47.8V642.8H654v21.4Z" class="g0"/>
<path d="M701.6,664.2h47.9V642.8H701.6v21.4Z" class="g0"/>
<path d="M749.3,664.2h47.8V642.8H749.3v21.4Z" class="g0"/>
<path d="M797,664.2h65.8V642.8H797v21.4Z" class="g0"/>
<g clip-path="url(#c0)">
<path d="M862.6,664.2h65.8V642.8H862.6v21.4Z" class="g0"/>
<path d="M39.2,685.5H78.6V664H39.2v21.5Z" class="g0"/>
</g>
<path d="M78.5,685.5h47.8V664H78.5v21.5Z" class="g0"/>
<path d="M126.1,685.5H174V664H126.1v21.5Z" class="g0"/>
<path d="M173.8,685.5h47.9V664H173.8v21.5Z" class="g0"/>
<path d="M221.5,685.5h47.8V664H221.5v21.5Z" class="g0"/>
<path d="M269.1,685.5h51.4V664H269.1v21.5Z" class="g0"/>
<path d="M320.3,685.5h47.8V664H320.3v21.5Z" class="g0"/>
<path d="M367.9,685.5h47.9V664H367.9v21.5Z" class="g0"/>
<path d="M415.6,685.5h47.9V664H415.6v21.5Z" class="g0"/>
<path d="M463.3,685.5h47.8V664H463.3v21.5Z" class="g0"/>
<path d="M511,685.5h47.8V664H511v21.5Z" class="g0"/>
<path d="M558.6,685.5h47.9V664H558.6v21.5Z" class="g0"/>
<path d="M606.3,685.5h47.8V664H606.3v21.5Z" class="g0"/>
<path d="M654,685.5h47.8V664H654v21.5Z" class="g0"/>
<path d="M701.6,685.5h47.9V664H701.6v21.5Z" class="g0"/>
<path d="M749.3,685.5h47.8V664H749.3v21.5Z" class="g0"/>
<path d="M797,685.5h65.8V664H797v21.5Z" class="g0"/>
<g clip-path="url(#c0)">
<path d="M862.6,685.5h65.8V664H862.6v21.5Z" class="g0"/>
<path d="M39.2,687H78.6v-1.7H39.2V687Z" class="g0"/>
</g>
<path d="M78.5,687h47.8v-1.7H78.5V687Z" class="g0"/>
<path d="M126.1,687H174v-1.7H126.1V687Z" class="g0"/>
<path d="M173.8,687h47.9v-1.7H173.8V687Z" class="g0"/>
<path d="M221.5,687h47.8v-1.7H221.5V687Z" class="g0"/>
<path d="M269.1,687h51.4v-1.7H269.1V687Z" class="g0"/>
<path d="M320.3,687h47.8v-1.7H320.3V687Z" class="g0"/>
<path d="M367.9,687h47.9v-1.7H367.9V687Z" class="g0"/>
<path d="M415.6,687h47.9v-1.7H415.6V687Z" class="g0"/>
<path d="M463.3,687h47.8v-1.7H463.3V687Z" class="g0"/>
<path d="M511,687h47.8v-1.7H511V687Z" class="g0"/>
<path d="M558.6,687h47.9v-1.7H558.6V687Z" class="g0"/>
<path d="M606.3,687h47.8v-1.7H606.3V687Z" class="g0"/>
<path d="M654,687h47.8v-1.7H654V687Z" class="g0"/>
<path d="M701.6,687h47.9v-1.7H701.6V687Z" class="g0"/>
<path d="M749.3,687h47.8v-1.7H749.3V687Z" class="g0"/>
<path d="M797,687h65.8v-1.7H797V687Z" class="g0"/>
<g clip-path="url(#c0)">
<path d="M862.6,687h65.8v-1.7H862.6V687Z" class="g0"/>
<path d="M39.2,689H78.6v-2.2H39.2V689Z" class="g0"/>
</g>
<path d="M78.5,689h47.8v-2.2H78.5V689Z" class="g0"/>
<path d="M126.1,689H174v-2.2H126.1V689Z" class="g0"/>
<path d="M173.8,689h47.9v-2.2H173.8V689Z" class="g0"/>
<path d="M221.5,689h47.8v-2.2H221.5V689Z" class="g0"/>
<path d="M269.1,689h51.4v-2.2H269.1V689Z" class="g0"/>
<path d="M320.3,689h47.8v-2.2H320.3V689Z" class="g0"/>
<path d="M367.9,689h47.9v-2.2H367.9V689Z" class="g0"/>
<path d="M415.6,689h47.9v-2.2H415.6V689Z" class="g0"/>
<path d="M463.3,689h47.8v-2.2H463.3V689Z" class="g0"/>
<path d="M511,689h47.8v-2.2H511V689Z" class="g0"/>
<path d="M558.6,689h47.9v-2.2H558.6V689Z" class="g0"/>
<path d="M606.3,689h47.8v-2.2H606.3V689Z" class="g0"/>
<path d="M654,689h47.8v-2.2H654V689Z" class="g0"/>
<path d="M701.6,689h47.9v-2.2H701.6V689Z" class="g0"/>
<path d="M749.3,689h47.8v-2.2H749.3V689Z" class="g0"/>
<path d="M797,689h65.8v-2.2H797V689Z" class="g0"/>
<g clip-path="url(#c0)">
<path d="M862.6,689h65.8v-2.2H862.6V689Z" class="g0"/>
<path d="M39.2,704H78.6V688.8H39.2V704Z" class="g0"/>
</g>
<path d="M78.5,704h47.8V688.8H78.5V704Z" class="g0"/>
<path d="M126.1,704H174V688.8H126.1V704Z" class="g0"/>
<path d="M173.8,704h47.9V688.8H173.8V704Z" class="g0"/>
<path d="M221.5,704h47.8V688.8H221.5V704Z" class="g0"/>
<path d="M269.1,704h51.4V688.8H269.1V704Z" class="g0"/>
<path d="M320.3,704h47.8V688.8H320.3V704Z" class="g0"/>
<path d="M367.9,704h47.9V688.8H367.9V704Z" class="g0"/>
<path d="M415.6,704h47.9V688.8H415.6V704Z" class="g0"/>
<path d="M463.3,704h47.8V688.8H463.3V704Z" class="g0"/>
<path d="M511,704h47.8V688.8H511V704Z" class="g0"/>
<path d="M558.6,704h47.9V688.8H558.6V704Z" class="g0"/>
<path d="M606.3,704h47.8V688.8H606.3V704Z" class="g0"/>
<path d="M654,704h47.8V688.8H654V704Z" class="g0"/>
<path d="M701.6,704h47.9V688.8H701.6V704Z" class="g0"/>
<path d="M749.3,704h47.8V688.8H749.3V704Z" class="g0"/>
<path d="M797,704h65.8V688.8H797V704Z" class="g0"/>
<path clip-path="url(#c0)" d="M862.6,704h65.8V688.8H862.6V704Z" class="g0"/>
<path clip-path="url(#c1)" d="M45.1,37.8H378.4M147.9,56.5h63.9" class="g5"/>
<path d="M55.7,199.8h53.9m29.6,0h69.3m370.8,0h53.9m33.8,0h69.3" class="g6"/>
<path d="M178,243.1H307.8" class="g7"/>
<path d="M562.1,243.5h69.3" class="g8"/>
<path d="M173.8,263.2h47.7m0,0h47.6m0,0h51.2m0,0h47.6m238.4,0H654m0,0h47.6m0,0h47.7m0,0H797" class="g9"/>
<path d="M177.1,260.3H277.2" class="ga"/>
<path d="M126.1,281h47.7m0,0h47.7m0,0h47.6m0,0h51.2m0,0h47.6M126.1,298.8H367.9m143.1,0h47.6m0,0h47.7m47.7,0h47.6m0,0h47.7m0,0H797M126.1,316.6h47.7m0,0h47.7m0,0h47.6m0,0h51.2m0,0h47.6m190.7,0h47.7m0,0H654m0,0h47.6m0,0h47.7m0,0H797" class="g9"/>
<path clip-path="url(#c0)" d="M39.8,413.4V369.8m-.6,.5H320.3m.5,43.1V369.8m-281.6,43H320.3m.5,.6V369.8m-.5,.5H511m.5,43.1V369.8m-191.2,43H511m.5,.6V369.8m-.5,.5h95.3m.5,43.1V369.8m-95.8,43h95.3m.5,.6V369.8m-.5,.5H797m.5,43.1V369.8m-191.2,43H797M39.8,434.6V412.3m-.6,.5H320.3m.5,21.8V412.3M39.2,434.1H320.3m.5,.5V412.3m-.5,.5H511m.5,21.8V412.3M320.3,434.1H511m.5,.5V412.3m-.5,.5h95.3m.5,21.8V412.3" class="gb"/>
<path d="M511,434.1h95.3" class="g9"/>
<path d="M606.8,434.6V412.3m-.5,.5H797m.5,21.8V412.3M606.3,434.1H797" class="gb"/>
<path clip-path="url(#c0)" d="M39.8,473.1V433.6m-.6,.5H320.3m.5,39V433.6m-281.6,39H320.3m.5,.5V433.6m-.5,.5H511m.5,39V433.6m-191.2,39H511" class="g9"/>
<path d="M511.5,473.1V433.6" class="gb"/>
<path d="M511,434.1h95.3" class="g9"/>
<path d="M606.8,473.1V433.6m-95.8,39h95.3" class="gb"/>
<path d="M606.8,473.1V433.6m-.5,.5H797m.5,39V433.6m-191.2,39H797" class="g9"/>
<image clip-path="url(#c0)" preserveAspectRatio="none" x="323" y="25" width="119" height="104" xlink:href="img/1.jpg"/>
<path d="M321.6,24.4H443.7M321.6,129.7H443.7M322.1,130V23.8M443.2,130V23.8" class="gb"/>
<image clip-path="url(#c2)" preserveAspectRatio="none" x="449" y="17" width="128" height="128" xlink:href="img/2.jpg"/>
<image clip-path="url(#c0)" preserveAspectRatio="none" x="533" y="601" width="118" height="42" xlink:href="img/3.jpg"/>
</svg>